<svg xmlns="http://www.w3.org/2000/svg" viewBox="0 0 1000 1000"><circle cx="500" cy="500" r="500" fill="#59b4c9"/><path fill="#fbf5e6" d="M220.06499999999997 440.0V257.475H342.80999999999995V290.55H258.03999999999996V331.955H337.90999999999997V365.03H258.03999999999996V406.925H342.80999999999995V440.0Z M395.73 442.94Q374.17 442.94 361.5525 432.65Q348.935 422.36 348.935 404.23Q348.935 387.325 360.69500000000005 376.29999999999995Q372.45500000000004 365.275 396.46500000000003 361.355L433.46000000000004 355.475V351.8Q433.46000000000004 344.205 427.45750000000004 339.06Q421.45500000000004 333.915 411.165 333.915Q401.365 333.915 393.89250000000004 339.305Q386.42 344.695 382.99 353.515L353.59000000000003 339.55Q359.47 322.89 375.51750000000004 313.09Q391.565 303.28999999999996 412.88 303.28999999999996Q429.785 303.28999999999996 442.77 309.41499999999996Q455.755 315.54 462.9825 326.4425Q470.21000000000004 337.345 470.21000000000004 351.8V440.0H435.91V427.505Q420.72 442.94 395.73 442.94ZM386.91 403.005Q386.91 409.13 391.56500000000005 412.56Q396.22 415.99 403.08000000000004 415.99Q416.8 415.99 425.13 407.415Q433.46000000000004 398.84000000000003 433.46000000000004 386.59000000000003V382.425L403.08000000000004 387.815Q395.24 389.285 391.07500000000005 392.8375Q386.91 396.39 386.91 403.005Z M489.81000000000006 440.0V306.23H524.11V326.32Q529.255 313.825 538.6875 309.2925Q548.12 304.76 560.37 304.76H568.21V336.61H556.695Q543.22 336.61 534.8900000000001 344.8175Q526.5600000000001 353.025 526.5600000000001 367.97V440.0Z M641.465 441.47Q617.21 441.47 603.8575000000001 428.3625Q590.5050000000001 415.255 590.5050000000001 391.735V338.08H567.965V306.23H569.19Q590.5050000000001 306.23 590.5050000000001 285.65V275.85H627.2550000000001V306.23H658.615V338.08H627.2550000000001V389.285Q627.2550000000001 409.62 650.0400000000001 409.62Q653.47 409.62 658.615 408.885V440.0Q654.94 440.49 650.2850000000001 440.98Q645.6300000000001 441.47 641.465 441.47Z M672.825 440.0V254.535H709.575V318.725Q715.21 310.885 724.2750000000001 307.0875Q733.34 303.28999999999996 744.61 303.28999999999996Q759.8000000000001 303.28999999999996 771.1925000000001 309.65999999999997Q782.585 316.03 788.955 327.4225Q795.325 338.815 795.325 354.005V440.0H758.575V361.845Q758.575 350.33 751.715 343.34749999999997Q744.855 336.365 734.075 336.365Q723.2950000000001 336.365 716.4350000000001 343.34749999999997Q709.575 350.33 709.575 361.845V440.0Z M231.08999999999997 745.0 292.83 562.475H343.29999999999995L405.03999999999996 745.0H363.635L351.385 707.76H284.5L272.25 745.0ZM295.03499999999997 674.685H340.84999999999997L318.065 604.37Z M466.28999999999996 747.94Q444.24 747.94 427.9475 737.5275Q411.655 727.115 405.775 709.475L432.72499999999997 696.735Q437.87 707.515 446.69 713.64Q455.51 719.765 466.28999999999996 719.765Q482.46 719.765 482.46 707.76Q482.46 699.675 469.23 696.0L446.445 689.63Q430.03 684.975 421.21 674.5625Q412.39 664.15 412.39 649.94Q412.39 637.445 418.76 628.135Q425.13 618.825 436.645 613.5575Q448.15999999999997 608.29 463.105 608.29Q482.705 608.29 497.52750000000003 617.4775Q512.35 626.665 518.475 643.325L491.28 656.065Q488.34 647.735 480.62249999999995 642.7125000000001Q472.905 637.69 463.105 637.69Q456.0 637.69 451.9575 640.6300000000001Q447.91499999999996 643.57 447.91499999999996 648.715Q447.91499999999996 656.5550000000001 462.37 660.72L483.685 667.09Q500.34499999999997 671.99 509.16499999999996 681.9125Q517.985 691.835 517.985 706.29Q517.985 724.91 503.775 736.425Q489.565 747.94 466.28999999999996 747.94Z M532.6850000000001 745.0V559.535H569.4350000000001V659.495L614.76 611.23H660.085L611.575 665.13L659.84 745.0H618.19L584.135 687.915L569.4350000000001 704.085V745.0Z M721.335 747.94Q699.2850000000001 747.94 682.9925000000001 737.5275Q666.7 727.115 660.82 709.475L687.7700000000001 696.735Q692.9150000000001 707.515 701.7350000000001 713.64Q710.5550000000001 719.765 721.335 719.765Q737.5050000000001 719.765 737.5050000000001 707.76Q737.5050000000001 699.675 724.2750000000001 696.0L701.49 689.63Q685.075 684.975 676.2550000000001 674.5625Q667.4350000000001 664.15 667.4350000000001 649.94Q667.4350000000001 637.445 673.8050000000001 628.135Q680.1750000000001 618.825 691.69 613.5575Q703.205 608.29 718.1500000000001 608.29Q737.75 608.29 752.5725 617.4775Q767.3950000000001 626.665 773.5200000000001 643.325L746.325 656.065Q743.3850000000001 647.735 735.6675 642.7125000000001Q727.95 637.69 718.1500000000001 637.69Q711.0450000000001 637.69 707.0025 640.6300000000001Q702.96 643.57 702.96 648.715Q702.96 656.5550000000001 717.4150000000001 660.72L738.73 667.09Q755.3900000000001 671.99 764.21 681.9125Q773.0300000000001 691.835 773.0300000000001 706.29Q773.0300000000001 724.91 758.82 736.425Q744.61 747.94 721.335 747.94Z"/></svg>